# xmcd
#
# Track frame offsets:
#	150
#	2467
#	17202
#	38205
#	55922
#	71852
#	75780
#	93457
#	111967
#	130177
#	144260
#	164320
#
# Disc length: 2487 seconds
# Revision: 3
# Processed by: cddbd v1.5.2PL0 Copyright (c) Steve Scherf et al.
# Submitted via: dBpowerAMP V12.0
#
DISCID=9209b50c
DTITLE=Kennedy Rose - Hai Ku
DYEAR=1989
DGENRE=Country
TTITLE0=Hai Ku
TTITLE1=Love Like This
TTITLE2=The Only Chain
TTITLE3=After Your Arms
TTITLE4=Faithful
TTITLE5=Cariation on a Theme in D Minor
TTITLE6=Western Fires
TTITLE7=Love Is the Healer
TTITLE8=Who's Gonna Hold You
TTITLE9=Born to Give My Love
TTITLE10=Nightline
TTITLE11=Leavin' Line
EXTD=
EXTT0=
EXTT1=
EXTT2=
EXTT3=
EXTT4=
EXTT5=
EXTT6=
EXTT7=
EXTT8=
EXTT9=
EXTT10=
EXTT11=
PLAYORDER=
